<svg width="21" height="17" viewBox="0 0 21 17" fill="none" xmlns="http://www.w3.org/2000/svg">
<path fill-rule="evenodd" clip-rule="evenodd" d="M17.5413 1.02802C17.6026 1.08406 17.4391 1.17211 17.1734 1.22014C16.9078 1.26817 16.8261 1.30819 16.9691 1.30819C17.1121 1.3162 17.1735 1.34822 17.1122 1.39624C17.0509 1.43627 17.0713 1.47629 17.1939 1.47629C17.2961 1.47629 17.3574 1.54834 17.3165 1.63639C17.2756 1.73245 17.3574 1.82051 17.5209 1.85253C17.9909 1.91656 17.6435 2.05265 17.153 1.98861C16.7648 1.94058 16.7443 1.94858 16.9691 2.05265C17.1734 2.15671 17.1735 2.18873 16.8874 2.22876C16.683 2.26078 16.4582 2.23676 16.356 2.18073C16.2334 2.10068 16.1926 2.11669 16.1926 2.21275C16.1926 2.2928 16.2947 2.35683 16.4174 2.35683C16.5195 2.35683 16.5808 2.38885 16.5195 2.42087C16.4787 2.45289 16.4991 2.53294 16.6217 2.59698C16.7443 2.67703 16.8056 2.68504 16.8056 2.61299C16.8056 2.56496 16.9487 2.51693 17.1122 2.51693C17.3778 2.51693 17.3983 2.54895 17.2143 2.68504C16.9895 2.83713 16.9487 2.83713 16.6217 2.72506C16.4174 2.65302 15.9678 2.59698 15.5795 2.59698C14.9869 2.59698 14.946 2.58097 15.1913 2.4609C15.3956 2.37284 15.3956 2.34883 15.2321 2.38886C15.0891 2.42088 14.9665 2.40487 14.9665 2.36484C14.9665 2.31681 15.0686 2.27679 15.1708 2.27679C15.2934 2.27679 15.3752 2.24477 15.3752 2.20474C15.3752 2.10868 14.3125 2.20474 13.9856 2.33282C13.8425 2.38885 13.7812 2.4689 13.8425 2.51693C13.9038 2.55696 13.8425 2.59698 13.679 2.59698C13.1682 2.59698 13.1477 2.80511 13.5769 3.08528C13.8221 3.23738 14.0469 3.31742 14.0877 3.25339C14.1491 3.20536 14.3125 3.15733 14.476 3.15733C14.6395 3.15733 14.7008 3.10929 14.6191 3.02124C14.5169 2.91718 14.5782 2.90117 14.9256 2.93319C15.1708 2.96521 15.4365 2.9492 15.4978 2.90917C15.5591 2.86915 15.7226 2.83713 15.8452 2.83713C15.9882 2.84513 15.743 2.9572 15.3139 3.1093C14.6191 3.33344 14.5578 3.38146 14.8439 3.46952C15.0278 3.52555 15.2934 3.55757 15.4773 3.53356C15.6408 3.50154 15.8656 3.54156 15.9678 3.62161C16.0904 3.70166 16.1926 3.71767 16.1926 3.65363C16.1926 3.6056 16.3969 3.55757 16.6626 3.55757H17.1122L16.683 3.70166C16.4378 3.7737 16.1926 3.89378 16.1313 3.95782C16.0495 4.03787 16.0087 4.02185 16.0087 3.90178C15.9882 3.80572 15.9065 3.70967 15.8247 3.68565C15.5591 3.62161 15.1095 3.77371 15.2526 3.86976C15.3343 3.91779 15.4978 3.94181 15.6 3.91779C15.7021 3.88577 15.7839 3.90979 15.7839 3.94981C15.7839 4.18996 14.6599 3.79772 14.5169 3.51755C14.476 3.42949 14.3534 3.35745 14.2104 3.35745C14.0877 3.35745 13.9038 3.33343 13.8221 3.30141C13.5769 3.19735 12.2895 3.82173 12.4325 3.97383C12.4938 4.06188 12.4325 4.11791 12.269 4.11791C12.0442 4.11791 12.0442 4.13393 12.269 4.18996C12.4938 4.246 12.4734 4.262 12.2077 4.30203C11.9421 4.34205 11.9216 4.39008 12.1056 4.51816C12.3099 4.67025 12.2282 4.71028 11.8195 4.68627C11.7173 4.67826 11.6968 4.72629 11.7581 4.79833C11.8399 4.86237 11.7786 4.91841 11.6355 4.91841C11.4925 4.91841 11.6151 4.99045 11.9012 5.0785C12.2895 5.19858 12.3303 5.2386 12.0851 5.2386C11.9012 5.2386 11.6968 5.29464 11.6151 5.35868C11.4108 5.57481 12.4325 5.49476 12.9638 5.25461C13.6586 4.92641 14.1082 4.87838 13.9856 5.13454C13.9243 5.24661 13.7199 5.35868 13.4951 5.38269C13.1477 5.41471 13.1682 5.43072 13.6178 5.59882L14.1286 5.78294L13.679 5.83897C13.4338 5.87099 13.1477 5.887 13.0251 5.87899C12.923 5.87099 12.9434 5.91102 13.0864 5.96705C13.5156 6.14316 13.393 6.43934 12.9025 6.43934C12.6164 6.43934 12.5142 6.47937 12.5755 6.55141C12.6369 6.61545 12.596 6.68749 12.4529 6.71151C12.3099 6.73552 12.5347 6.73552 12.9434 6.71151C13.6995 6.66348 14.1695 6.77555 13.7199 6.88762C13.5565 6.92764 13.536 6.91163 13.6382 6.83958C13.8834 6.68749 12.5551 6.79956 12.0238 6.98367C11.8195 7.05572 11.6969 7.07173 11.7786 7.01569C11.8808 6.95165 11.7786 6.83958 11.5538 6.74352C11.3494 6.64747 11.3086 6.59944 11.4312 6.63146C11.5742 6.66348 11.8603 6.64747 12.0442 6.60744C12.3916 6.5274 12.3712 6.52739 12.0034 6.51939C11.6968 6.51939 11.656 6.50338 11.8808 6.44735C12.0238 6.40732 12.1055 6.32727 12.0647 6.27124C12.0034 6.2072 12.1055 6.11914 12.269 6.07112C12.5142 5.99907 12.5142 5.96705 12.2282 5.85498C11.9216 5.73491 11.9216 5.7189 12.2486 5.64686C12.5756 5.57481 12.5755 5.5668 12.269 5.5588C12.0851 5.5588 11.799 5.61483 11.6151 5.67887C11.4516 5.74291 11.2064 5.79895 11.0838 5.79895C10.9612 5.79895 10.9203 5.83097 10.9816 5.87899C11.0429 5.91902 11.0021 5.95904 10.8999 5.95904C10.7773 5.95904 10.6751 6.01508 10.6751 6.07912C10.6751 6.14316 10.5525 6.19919 10.389 6.19919C9.85768 6.19919 9.81681 6.35929 10.3073 6.43134C10.6751 6.49538 10.6955 6.51138 10.4094 6.51138C10.2051 6.51939 10.1029 6.55141 10.1642 6.59944C10.2255 6.63946 10.1642 6.67949 10.0212 6.67949C9.83724 6.67949 9.83725 6.7035 10.062 6.75954C10.3277 6.82357 10.3277 6.84759 10.0416 6.93564C9.85769 6.99168 9.65333 7.10375 9.59202 7.17579C9.48985 7.28786 9.5716 7.31988 9.95986 7.31988C10.246 7.31988 10.4707 7.3519 10.4707 7.39993C10.4707 7.43995 10.3481 7.47998 10.1846 7.47998C10.0212 7.47998 9.83724 7.52801 9.79637 7.57604C9.71463 7.65609 9.67377 7.65609 9.67377 7.57604C9.6329 7.41594 9.12201 7.46397 9.10157 7.64008C9.08114 7.74414 9.18331 7.80017 9.4081 7.80017C9.62608 7.80551 9.62608 7.83486 9.4081 7.88823C9.20375 7.92826 9.04028 8.0083 9.04028 8.04833C9.04028 8.09636 9.14246 8.10436 9.24463 8.08035C9.36725 8.05633 9.44899 8.07234 9.44899 8.11237C9.44899 8.1604 9.34682 8.20042 9.22421 8.20042C9.10159 8.20042 9.04027 8.24845 9.08114 8.29648C9.14245 8.35251 8.97897 8.45658 8.75419 8.53663C8.38635 8.6567 8.36592 8.68872 8.63158 8.76076C8.89724 8.8248 8.87679 8.84081 8.57027 8.84081C8.32504 8.84081 8.2433 8.87283 8.36591 8.93687C8.5907 9.08096 8.63158 9.24906 8.42723 9.20103C8.32505 9.17702 8.20244 9.19303 8.1207 9.24106C8.0594 9.28108 8.10026 9.32111 8.20244 9.32111C8.32505 9.32111 8.42723 9.35313 8.42723 9.40116C8.42723 9.44118 8.30461 9.4812 8.16156 9.4812C8.01852 9.4812 7.89591 9.55325 7.87548 9.6413C7.85504 9.72936 7.91634 9.8014 7.99808 9.8014C8.07983 9.8014 8.16156 9.85744 8.16156 9.92148C8.16156 10.0015 7.99809 10.0255 7.63025 9.99352C7.22155 9.9615 7.16025 9.96951 7.40547 10.0335C7.73244 10.1216 7.89591 10.4738 7.58938 10.3938C7.48721 10.3698 7.40547 10.3938 7.40547 10.4338C7.40547 10.4818 6.99677 10.5218 6.48589 10.5218C5.97501 10.5218 5.58674 10.4978 5.58674 10.4578C5.60718 10.4258 5.58675 10.3858 5.56631 10.3617C5.54588 10.3377 5.505 10.2337 5.48457 10.1296L5.42326 9.94549L5.77066 10.1216C6.03632 10.2577 6.22024 10.2897 6.58807 10.2417L7.0785 10.1776L6.52675 10.0656C5.93413 9.94549 5.77066 9.83342 6.30197 9.91347C6.48589 9.93749 6.5472 9.92948 6.48589 9.87345C6.40415 9.83342 6.17936 9.81741 5.99544 9.84143C5.48457 9.90547 5.01455 9.81741 4.89194 9.6333C4.76933 9.44919 5.05543 9.43318 5.32109 9.60929C5.48457 9.72936 5.52544 9.72936 5.62761 9.60929C5.70936 9.52924 5.68892 9.48921 5.56631 9.52123C5.4437 9.54524 5.36196 9.51322 5.36196 9.44118C5.36196 9.35313 5.23935 9.32911 4.87151 9.36914C4.44238 9.40916 4.38107 9.39315 4.46281 9.25707C4.52412 9.17702 4.44238 9.04894 4.25846 8.9849C4.09498 8.91286 4.01324 8.83281 4.09498 8.8088C4.15629 8.77678 4.09498 8.72074 3.9315 8.68071C3.66585 8.61667 3.68627 8.60067 3.97236 8.60067C4.15628 8.60067 4.38107 8.63268 4.44238 8.68071C4.50369 8.72074 4.70803 8.76076 4.89194 8.76076C5.1576 8.76076 5.13717 8.72875 4.76934 8.56865C4.52412 8.46458 4.34019 8.3285 4.38106 8.27247C4.42194 8.20843 4.29933 8.1604 4.11541 8.1684C3.93149 8.17641 3.78845 8.13638 3.78845 8.08035C3.78845 8.01631 3.9315 7.99229 4.09498 8.02431C4.29933 8.04833 4.36063 8.03232 4.25846 7.97628C4.17672 7.92025 3.95193 7.88022 3.76801 7.88022C3.48192 7.88022 3.48192 7.86422 3.70671 7.80818C3.84975 7.76816 3.9315 7.70412 3.84976 7.65609C3.78845 7.60806 3.84975 7.56003 3.97236 7.53601C4.17671 7.512 4.15629 7.46397 3.89063 7.34389C3.5841 7.21581 3.29801 7.1918 2.05147 7.21582C0.716373 7.23183 0.0488281 7.31454 0.0488281 7.46397C0.0488281 7.64007 0.110133 7.65609 0.661882 7.60806C1.07058 7.58138 1.17276 7.6294 0.968409 7.75215C0.804928 7.84821 0.723182 7.96027 0.784488 7.98429C0.866228 8.01631 0.764053 8.05633 0.580136 8.08835C0.191869 8.14439 0.130566 8.26446 0.518834 8.25645C1.3158 8.24845 1.45885 8.28847 1.39754 8.4966C1.37711 8.62468 1.41797 8.80079 1.52015 8.89685C1.60189 9.00091 1.60189 9.08096 1.49972 9.08096C1.21363 9.08096 0.825355 8.85682 0.947966 8.76877C1.05014 8.70473 0.886668 8.70473 0.253179 8.76076C0.191874 8.76076 0.314477 8.8168 0.539264 8.88084C0.743615 8.93687 0.845798 9.03293 0.764058 9.08096C0.682317 9.12899 0.723185 9.20904 0.82536 9.26507C0.927536 9.32111 1.07058 9.45719 1.15232 9.57726C1.25449 9.74537 1.39755 9.8014 1.78581 9.8014C2.07191 9.8014 2.37843 9.86544 2.50104 9.9615C2.62365 10.0496 2.93018 10.1216 3.1754 10.1216C3.47512 10.1216 3.46149 10.1563 3.13453 10.2257C2.52147 10.3457 2.5419 10.4658 3.15496 10.5379C3.50235 10.5699 3.52279 10.5859 3.25713 10.5939C2.97104 10.6019 2.90974 10.6419 3.03235 10.778C3.09366 10.8821 3.25714 10.9701 3.33888 10.9861C3.44105 11.0021 3.5228 11.0662 3.5228 11.1222C3.5228 11.1863 3.66585 11.2103 3.9315 11.1863C4.15629 11.1622 4.3402 11.1863 4.3402 11.2343C4.3402 11.2823 4.19716 11.3223 4.03368 11.3223C3.56367 11.3223 3.66584 11.4984 4.27889 11.6986C4.56498 11.8026 4.70803 11.8827 4.56499 11.8827C4.42194 11.8827 4.38107 11.9147 4.44238 11.9627C4.50369 12.0028 4.42194 12.0428 4.25846 12.0428C4.09498 12.0428 3.91106 12.0748 3.84976 12.1068C3.72715 12.1869 4.7489 13.0034 4.97369 13.0034C5.07586 13.0034 5.0963 12.9473 5.03499 12.8833C4.95325 12.8193 5.01456 12.7632 5.13717 12.7632C5.25978 12.7632 5.38239 12.7952 5.38239 12.8433C5.4437 13.0034 5.46413 13.0434 5.64805 13.1555C5.77066 13.2275 5.75023 13.2515 5.62761 13.2195C5.36196 13.1555 5.0963 13.3796 5.28022 13.4997C5.34152 13.5397 5.52544 13.5557 5.66849 13.5317C5.83197 13.5077 6.05675 13.5477 6.1998 13.6117C6.40415 13.7078 6.38371 13.7158 6.11805 13.6838C5.95457 13.6518 5.75023 13.6678 5.66849 13.7158C5.60718 13.7638 5.66849 13.8039 5.83197 13.8039C6.17936 13.8039 6.44501 14.012 6.2611 14.1481C6.19979 14.2041 6.30197 14.1721 6.46545 14.092C6.81285 13.9239 6.91503 14.004 6.6085 14.2041C6.30197 14.3802 6.58806 14.4683 6.93546 14.3082C7.09894 14.2281 7.18069 14.2121 7.09895 14.2601C7.03764 14.3162 7.07851 14.3642 7.20112 14.3642C7.32373 14.3642 7.28286 14.4443 7.0785 14.5643C6.77198 14.7484 6.77198 14.7725 7.20112 14.9966C7.58939 15.2207 7.71199 15.2367 8.5907 15.2047C9.26505 15.1887 9.42856 15.1967 9.12203 15.2447C8.50898 15.3408 8.30461 15.4929 8.67244 15.597C8.83592 15.645 9.01983 15.7491 9.10157 15.8211C9.16288 15.9011 9.36725 15.9652 9.55116 15.9652C9.73508 15.9652 9.85768 16.0372 9.87812 16.1413C9.87812 16.3094 9.91898 16.3014 10.1029 16.1013C10.2255 15.9572 10.4094 15.8931 10.5933 15.9172C10.7568 15.9412 11.0429 15.9892 11.2473 16.0132C11.5334 16.0532 11.5538 16.0452 11.2881 15.9732C11.0838 15.9172 11.0633 15.8851 11.2473 15.8851C11.3903 15.8851 11.4925 15.7811 11.4925 15.645C11.4925 15.5089 11.5947 15.4048 11.7581 15.4048C11.8808 15.4048 11.8399 15.3648 11.6355 15.3168C11.2677 15.2367 11.2677 15.2287 11.6355 15.1167C11.8399 15.0606 11.9216 15.0046 11.8195 15.0046C11.7173 15.0046 11.7582 14.9486 11.9012 14.8845C12.1056 14.7805 12.1055 14.7324 11.8195 14.6124C11.6151 14.5243 11.5538 14.4362 11.656 14.4122C11.7786 14.3882 11.8195 14.2842 11.7377 14.1881C11.656 14.06 11.6968 14.028 11.9421 14.06C12.1055 14.092 12.3712 14.076 12.5347 14.044C12.739 13.988 12.6777 13.956 12.2486 13.8919C11.9421 13.8439 11.6968 13.7798 11.6968 13.7558C11.6968 13.7238 11.7581 13.7238 11.8399 13.7478C12.0442 13.8279 12.5551 13.4997 12.3916 13.3876C12.3099 13.3396 12.3303 13.3236 12.4734 13.3556C12.596 13.3796 12.739 13.3716 12.8004 13.3316C12.8617 13.2915 12.7186 13.2435 12.4734 13.2195C12.1055 13.1795 12.0851 13.1555 12.3099 13.0514C12.4529 12.9794 12.4938 12.9233 12.4121 12.9233C12.3303 12.9233 12.3712 12.8673 12.5143 12.8032C12.6573 12.7392 12.7186 12.6351 12.6573 12.5631C12.5756 12.4991 12.6369 12.427 12.7595 12.395C12.9025 12.363 12.8821 12.323 12.6982 12.2749C12.4938 12.2269 12.4734 12.2029 12.6777 12.2029C12.8003 12.2029 12.923 12.1308 12.923 12.0428C12.923 11.9547 12.8208 11.8827 12.7186 11.8827C12.596 11.8827 12.6982 11.8026 12.923 11.7066C13.1682 11.6025 13.3112 11.4584 13.2499 11.3864C13.209 11.3063 13.2499 11.2263 13.3317 11.2023C13.6178 11.1302 13.4747 10.834 13.1886 10.8741C13.0456 10.8981 12.923 10.8821 12.923 10.842C12.923 10.794 13.1069 10.762 13.3112 10.762C13.8221 10.762 13.9447 10.6819 14.0265 10.3137C14.0673 10.1536 14.2104 9.99352 14.3534 9.9615C14.476 9.92948 14.5782 9.88145 14.5578 9.84943C14.4965 9.72936 14.8234 9.23306 14.9869 9.19303C15.0891 9.16902 15.1708 9.04894 15.1708 8.91286C15.1708 8.78478 15.2321 8.68071 15.3343 8.68071C15.416 8.68071 15.4978 8.56865 15.5182 8.43256C15.5386 8.29648 15.6613 8.13638 15.7839 8.08035C15.8861 8.03232 15.9269 7.96027 15.8656 7.93626C15.8043 7.91224 15.8247 7.8402 15.9065 7.78416C16.0087 7.72813 16.0904 7.66409 16.1108 7.64008C16.1108 7.61606 16.2335 7.48798 16.3765 7.3599C16.5195 7.22382 16.6626 7.05572 16.7035 6.98367C16.7443 6.91163 16.8874 6.77555 17.01 6.67949C17.1326 6.58343 17.1939 6.45535 17.1326 6.39131C17.0713 6.32727 17.0917 6.27924 17.1939 6.27924C17.5209 6.27924 17.7865 5.91101 17.5822 5.75892C17.4187 5.66286 17.4391 5.63084 17.5822 5.67087C17.7048 5.70289 17.95 5.61483 18.1339 5.47875C18.3587 5.31065 18.3791 5.2386 18.2157 5.2386C18.0726 5.2386 18.1135 5.17457 18.3178 5.08651C18.7061 4.91841 18.6652 4.62222 18.2565 4.66225C18.1135 4.67025 18.0522 4.64624 18.1339 4.59821C18.1952 4.55018 18.3587 4.54218 18.4813 4.56619C18.6243 4.60622 18.6652 4.5742 18.5835 4.49415C18.5017 4.40609 18.5426 4.38208 18.747 4.40609C18.9309 4.43811 18.9922 4.39809 18.9718 4.30203C18.9309 4.22198 18.9922 4.14193 19.0739 4.10991C19.2987 4.05388 19.6665 3.30141 19.5235 3.21336C19.4622 3.17334 19.5031 3.1173 19.6257 3.08528C19.7483 3.05326 19.8913 2.87715 19.9118 2.69304C19.9526 2.4609 20.0753 2.35683 20.2796 2.35683C20.5248 2.34883 20.5248 2.33282 20.2387 2.26878C19.9118 2.19674 19.9118 2.18073 20.2183 2.03664C20.627 1.85252 20.7292 1.55634 20.3613 1.61238C20.2183 1.62839 20.157 1.70844 20.2183 1.78048C20.3205 1.88454 20.2592 1.87654 19.8096 1.74846C19.5235 1.66841 19.2578 1.56435 19.2578 1.52433C19.2578 1.4843 19.3805 1.50031 19.5439 1.54834C19.7483 1.62038 19.8709 1.61238 20.0548 1.52433C20.1979 1.46029 20.4431 1.42827 20.6066 1.45228C20.77 1.47629 20.8927 1.45228 20.8927 1.40425C20.8927 1.35622 20.6679 1.30019 20.3818 1.26817C20.0957 1.24415 19.8709 1.18812 19.8709 1.1561C19.8709 1.08405 19.0126 0.979989 18.093 0.955975C17.6639 0.939965 17.48 0.963981 17.5413 1.02802ZM18.3791 1.12408C18.3178 1.1481 18.1339 1.1561 17.9909 1.13208C17.8274 1.10807 17.8887 1.08406 18.1135 1.08406C18.3383 1.07605 18.4609 1.10007 18.3791 1.12408ZM17.6843 2.41287C17.5413 2.42888 17.2552 2.42888 17.0713 2.41287C16.8669 2.38885 16.9895 2.37284 17.3165 2.37284C17.6639 2.37284 17.8069 2.38885 17.6843 2.41287ZM19.5235 2.52494C19.5848 2.60499 19.4826 2.68504 19.3191 2.70905C19.1557 2.73307 19.0944 2.72506 19.1557 2.68504C19.217 2.64501 19.0535 2.54895 18.8083 2.48492L18.3383 2.35683L18.89 2.37284C19.217 2.38085 19.4826 2.44489 19.5235 2.52494ZM15.4773 3.31742C15.273 3.40548 15.0686 3.46151 15.0073 3.4375C14.8643 3.38947 15.3752 3.15733 15.6408 3.15733C15.743 3.15733 15.6817 3.22937 15.4773 3.31742ZM13.4338 3.87777C13.3725 3.91779 13.1886 3.95782 13.066 3.95782C12.9229 3.95782 12.9434 3.9258 13.1273 3.87777C13.5156 3.78171 13.5973 3.78171 13.4338 3.87777ZM14.7621 3.9258C14.7621 3.98984 14.6599 4.02186 14.5373 3.98984C14.3943 3.95782 14.3534 4.00585 14.3943 4.11791C14.4351 4.22998 14.333 4.31804 14.1491 4.33405C13.8834 4.36607 13.8834 4.35806 14.1491 4.28602C14.3943 4.21398 14.3943 4.19796 14.1082 4.15794C13.8221 4.10991 13.8017 4.07789 14.006 3.94981C14.2921 3.7657 14.7621 3.74969 14.7621 3.9258ZM14.1491 4.53417C14.1491 4.5822 14.0877 4.59821 14.006 4.5742C13.9447 4.54218 13.7812 4.55818 13.6382 4.59821C13.4747 4.65424 13.393 4.63823 13.393 4.55818C13.393 4.49415 13.5769 4.43811 13.7812 4.43811C13.9856 4.43811 14.1491 4.47814 14.1491 4.53417ZM15.5795 4.63823C15.5795 4.65424 15.3956 4.66225 15.1913 4.65424C14.9665 4.65424 14.8234 4.61422 14.8847 4.5822C14.9665 4.53417 15.5795 4.5822 15.5795 4.63823ZM15.3343 5.11853C15.273 5.14254 15.1504 5.10252 15.0891 5.02247C14.9665 4.9104 14.9869 4.9024 15.1913 4.97444C15.3343 5.03048 15.3956 5.09451 15.3343 5.11853ZM17.7252 5.0705C17.8683 5.16656 17.1326 5.33466 16.9282 5.26262C16.8669 5.2386 16.8056 5.16656 16.8056 5.10252C16.8056 4.98244 17.5413 4.95843 17.7252 5.0705ZM14.9052 5.12654C14.8438 5.15055 14.6599 5.15855 14.5169 5.13454C14.3534 5.11052 14.4147 5.08651 14.6395 5.08651C14.8643 5.07851 14.9869 5.10252 14.9052 5.12654ZM15.0686 5.47075C14.8439 5.5508 14.4147 5.59082 13.9447 5.5588C13.7812 5.55079 13.9243 5.51077 14.2512 5.47875C15.1504 5.3907 15.273 5.3907 15.0686 5.47075ZM16.8056 5.75092C16.8056 5.76693 16.6626 5.80695 16.4787 5.83097C16.3152 5.85498 16.2334 5.84698 16.2948 5.79895C16.4174 5.7189 16.8056 5.68688 16.8056 5.75092ZM14.0469 6.03909C13.9856 6.07912 13.8017 6.11914 13.679 6.11914C13.536 6.11914 13.5564 6.08712 13.7404 6.03909C14.1286 5.94303 14.2104 5.94303 14.0469 6.03909ZM14.7008 6.32727C14.6395 6.35129 14.4556 6.35929 14.3125 6.33528C14.149 6.31126 14.2104 6.28725 14.4352 6.28725C14.6599 6.27924 14.7825 6.30326 14.7008 6.32727ZM11.0838 6.67949C11.0838 6.71951 11.0429 6.75954 11.0021 6.75954C10.9407 6.75954 10.8386 6.71951 10.7773 6.67949C10.716 6.63146 10.7568 6.59944 10.859 6.59944C10.9816 6.59944 11.0838 6.63146 11.0838 6.67949ZM12.2077 7.27985C11.8808 7.39192 11.4516 7.47998 11.2881 7.47998C11.0429 7.47197 11.0429 7.45597 11.329 7.36791C11.5334 7.31188 11.6151 7.23182 11.5334 7.19981C11.4516 7.15978 11.5129 7.15978 11.6355 7.1918C11.7786 7.22382 12.0647 7.20781 12.2486 7.16779C12.8616 7.0237 12.8412 7.07973 12.2077 7.27985ZM13.6995 7.24784C13.7608 7.3439 13.7404 7.3439 13.5769 7.24784C13.4543 7.1838 13.2704 7.16779 13.1273 7.19981C12.9434 7.23983 12.9025 7.23183 13.0047 7.16779C13.2091 7.04772 13.5769 7.08774 13.6995 7.24784ZM3.56366 7.52C3.62497 7.63207 3.5841 7.72012 3.50236 7.72012C3.40018 7.72012 3.31844 7.69611 3.29801 7.65609C3.29801 7.62407 3.25714 7.53601 3.21627 7.45596C3.1754 7.38392 3.21627 7.31988 3.31845 7.31988C3.40019 7.31988 3.52279 7.40793 3.56366 7.52ZM12.923 7.64808C12.923 7.68811 12.8412 7.72012 12.7186 7.72012C12.6164 7.72012 12.5143 7.66409 12.5143 7.59205C12.5143 7.52801 12.6164 7.49599 12.7186 7.52C12.8412 7.54402 12.923 7.60005 12.923 7.64808ZM11.3903 7.76816C11.1179 7.84821 11.1315 7.90157 11.4312 7.92826C11.6968 7.96027 11.8603 8.03232 11.8399 8.12037C11.8195 8.20842 11.6968 8.24845 11.4516 8.21643C11.2064 8.19242 11.0838 8.21643 11.1247 8.28047C11.1655 8.3365 11.0633 8.40054 10.9407 8.41655C10.7977 8.44057 10.6751 8.40055 10.6751 8.3285C10.6751 8.25646 10.5525 8.20042 10.4299 8.19242C10.2255 8.19242 10.2255 8.17641 10.4094 8.15239C10.532 8.12838 10.5934 8.02431 10.5525 7.92025C10.4912 7.77616 10.5321 7.73614 10.7568 7.76816C10.9203 7.79217 11.1042 7.77616 11.186 7.72813C11.2473 7.6801 11.4312 7.64008 11.5538 7.64008C11.6968 7.64008 11.6151 7.69611 11.3903 7.76816ZM14.2104 7.73614C14.0877 7.82419 13.5769 7.81619 13.4543 7.72813C13.393 7.68811 13.5565 7.66409 13.8221 7.6721C14.0878 7.6721 14.2717 7.70412 14.2104 7.73614ZM13.6382 7.94426C13.5769 7.96828 13.4134 7.94426 13.2703 7.88823C13.0864 7.80818 13.1069 7.80018 13.393 7.84821C13.5973 7.87222 13.6995 7.92025 13.6382 7.94426ZM12.596 8.02431C12.6573 8.06433 12.5756 8.09636 12.4121 8.09636C12.2486 8.09636 12.1669 8.06433 12.2282 8.02431C12.2895 7.99229 12.3712 7.96027 12.4121 7.96027C12.4529 7.96027 12.5347 7.99229 12.596 8.02431ZM12.5143 8.28047C12.5143 8.32049 12.4734 8.36052 12.4325 8.36052C12.3712 8.36052 12.269 8.32049 12.2077 8.28047C12.1464 8.23244 12.1873 8.20042 12.2895 8.20042C12.4121 8.20042 12.5143 8.23244 12.5143 8.28047ZM15.3752 8.32049C15.3752 8.3365 15.2321 8.36052 15.0686 8.39254C14.8847 8.41655 14.7621 8.39254 14.7621 8.32049C14.7621 8.24845 14.8847 8.22444 15.0686 8.24845C15.2321 8.28047 15.3752 8.30448 15.3752 8.32049ZM11.9625 8.69672C12.1464 8.69672 12.3099 8.72074 12.3099 8.75276C12.3099 8.78478 11.8603 8.8168 11.329 8.8088C10.6955 8.80079 10.3277 8.76877 10.3277 8.70473C10.3277 8.63268 10.5321 8.61668 10.9612 8.6487C11.3086 8.68072 11.7581 8.69672 11.9625 8.69672ZM10.5525 8.9849C10.6955 9.08096 10.4094 9.20904 9.91898 9.25707C9.3468 9.3131 9.28551 9.19303 9.85769 9.12098C10.0825 9.08896 10.2255 9.03293 10.1642 8.99291C10.0825 8.95288 10.1234 8.92086 10.246 8.92086C10.3481 8.92086 10.4912 8.95288 10.5525 8.9849ZM11.3903 9.00091C11.4516 9.04093 11.4108 9.08096 11.3086 9.08096C11.186 9.08096 11.0838 9.04093 11.0838 9.00091C11.0838 8.95288 11.1247 8.92086 11.1655 8.92086C11.2268 8.92086 11.329 8.95288 11.3903 9.00091ZM4.27889 9.20904C4.21758 9.23306 4.03368 9.24106 3.89063 9.21704C3.72715 9.19303 3.78845 9.16902 4.01324 9.16902C4.23802 9.16101 4.36063 9.18503 4.27889 9.20904ZM1.99017 9.32111C2.05147 9.36113 2.0106 9.40116 1.88799 9.40116C1.74494 9.40116 1.68364 9.45719 1.74494 9.51323C1.82668 9.59328 1.76537 9.61729 1.56102 9.58527C1.19319 9.52923 1.19319 9.24106 1.56102 9.24106C1.7245 9.24106 1.92886 9.27308 1.99017 9.32111ZM10.9816 9.32111C11.0429 9.36113 11.0021 9.40116 10.8999 9.40116C10.7773 9.40116 10.6751 9.36113 10.6751 9.32111C10.6751 9.27308 10.716 9.24106 10.7568 9.24106C10.8181 9.24106 10.9203 9.27308 10.9816 9.32111ZM10.2664 9.4732C9.9803 9.68133 10.0007 9.69734 10.4707 9.74537C10.6955 9.76938 10.8794 9.81741 10.8794 9.85744C10.8794 9.93749 9.81681 9.92948 9.46942 9.84943C9.34681 9.81741 9.06071 9.80941 8.87679 9.83342C8.69288 9.86544 8.75419 9.81741 9.04028 9.72936C9.30594 9.64131 9.61245 9.59328 9.71463 9.61729C9.8168 9.6413 9.93942 9.58527 10.0007 9.48921C10.062 9.39315 10.1846 9.32111 10.3073 9.32111C10.4094 9.32111 10.389 9.38515 10.2664 9.4732ZM10.062 10.1936C10.062 10.2337 10.1233 10.3377 10.1846 10.4178C10.246 10.4978 10.2255 10.5298 10.1233 10.4818C10.0416 10.4338 9.83724 10.4018 9.71463 10.3938C8.95853 10.3698 8.83593 10.3537 8.83593 10.2737C8.83593 10.2337 8.91766 10.2097 8.9994 10.2337C9.08114 10.2497 9.28551 10.2417 9.44899 10.1936C9.83725 10.1056 10.062 10.1056 10.062 10.1936ZM9.4081 10.5379C9.36723 10.6019 9.5103 10.6339 9.73508 10.6179C10.0212 10.5939 10.0825 10.6259 9.98029 10.722C9.89855 10.826 9.93943 10.85 10.1642 10.818C10.3277 10.786 10.5116 10.802 10.5729 10.85C10.6547 10.8901 10.8181 10.9061 10.9407 10.8741C11.0838 10.85 11.0225 10.8821 10.7977 10.9541C10.5933 11.0182 10.4912 11.1062 10.5525 11.1462C10.6138 11.1943 10.5116 11.2183 10.3277 11.2023C10.1233 11.1863 9.87812 11.1702 9.75551 11.1622C9.65334 11.1542 9.7555 11.1222 10.0212 11.0822C10.2664 11.0422 10.4707 10.9621 10.4503 10.9061C10.4503 10.826 10.4094 10.826 10.3277 10.8981C10.2664 10.9701 10.1233 10.9781 9.87812 10.9221C9.59203 10.8661 9.51028 10.8821 9.51028 10.9861C9.51028 11.0582 9.61247 11.1702 9.73508 11.2343C9.89856 11.3223 9.89854 11.3544 9.71463 11.3784C9.57158 11.4024 9.44899 11.4504 9.44899 11.4904C9.44899 11.5385 9.55116 11.5465 9.65334 11.5225C9.77595 11.4984 9.85769 11.5145 9.85769 11.5625C9.85769 11.6185 9.69419 11.6345 9.4081 11.5945C9.14244 11.5625 8.67245 11.5385 8.32505 11.5385L7.712 11.5465L8.28418 11.4664C8.81549 11.3944 8.83592 11.3784 8.48852 11.2823C8.14112 11.1782 8.14112 11.1702 8.48852 11.1222C9.10157 11.0262 8.85637 10.9301 8.01853 10.9461C7.50765 10.9541 7.20112 10.9941 7.20112 11.0582C7.20112 11.2103 7.05807 11.1863 6.42458 10.9621C5.87283 10.762 6.07719 10.6899 6.81285 10.842C7.11938 10.9141 7.24199 10.8981 7.32373 10.802C7.4259 10.698 7.50765 10.698 7.7733 10.778C8.01852 10.8581 8.10026 10.8581 8.16156 10.778C8.22287 10.73 8.42723 10.6819 8.65201 10.6819C8.89723 10.6819 8.97898 10.6419 8.91768 10.5619C8.83594 10.4898 8.91768 10.4418 9.12203 10.4418C9.30595 10.4418 9.42854 10.4898 9.4081 10.5379ZM4.23803 10.826C4.17672 10.85 4.01323 10.826 3.87019 10.77C3.68627 10.6899 3.70671 10.6819 3.99281 10.73C4.19716 10.754 4.29933 10.802 4.23803 10.826ZM12.269 10.9061C12.3916 11.0502 11.9625 11.0182 11.8195 10.8741C11.7377 10.794 11.799 10.762 11.9421 10.778C12.0647 10.794 12.2281 10.858 12.269 10.9061ZM5.25979 11.8827C5.32109 11.9227 5.28022 11.9627 5.17804 11.9627C5.05543 11.9627 4.95326 11.9227 4.95326 11.8827C4.95326 11.8346 4.99412 11.8026 5.03499 11.8026C5.0963 11.8026 5.19848 11.8346 5.25979 11.8827ZM9.65334 11.8827C9.24463 11.9867 8.97898 11.9867 9.14246 11.8827C9.20376 11.8346 9.42854 11.8026 9.61245 11.8026C9.91898 11.8026 9.91899 11.8186 9.65334 11.8827ZM4.95326 12.459C4.95326 12.5631 4.48324 12.4991 4.38106 12.379C4.34019 12.3229 4.42194 12.2989 4.62629 12.331C4.8102 12.355 4.95326 12.419 4.95326 12.459ZM9.24463 12.363C9.08115 12.403 8.79506 12.435 8.63158 12.435C8.42723 12.435 8.4681 12.411 8.73376 12.363C9.28551 12.2669 9.61247 12.2669 9.24463 12.363ZM5.97501 12.7632C5.97501 12.8032 5.93414 12.8433 5.89327 12.8433C5.83196 12.8433 5.72979 12.8032 5.66849 12.7632C5.60718 12.7152 5.64805 12.6832 5.75022 12.6832C5.87283 12.6832 5.97501 12.7152 5.97501 12.7632ZM7.81418 13.9239C7.81418 14.02 7.22155 13.9479 7.11938 13.8439C7.03764 13.7398 7.07851 13.7318 7.40547 13.8039C7.63026 13.8519 7.81418 13.9079 7.81418 13.9239ZM8.38634 14.2922C8.14112 14.3482 7.89591 14.3482 7.67113 14.2922C7.3646 14.2201 7.42591 14.2121 8.01853 14.2121C8.61115 14.2121 8.67244 14.2201 8.38634 14.2922ZM8.65201 14.4843C8.65201 14.5323 8.4681 14.5723 8.28418 14.5723C8.07983 14.5803 7.73244 14.6124 7.50765 14.6444C6.99677 14.7244 7.24198 14.6204 7.85504 14.4843C8.38635 14.3722 8.67245 14.3722 8.65201 14.4843ZM8.16156 14.8205C7.99808 14.8925 7.75287 14.9165 7.60982 14.8845C7.44634 14.8445 7.4872 14.7965 7.75286 14.7244C8.22287 14.5883 8.54983 14.6684 8.16156 14.8205ZM9.04028 14.8445C9.04028 14.9325 8.99941 15.0046 8.95854 15.0046C8.91767 15.0046 8.83592 14.9325 8.77462 14.8445C8.71331 14.7564 8.75419 14.6844 8.85636 14.6844C8.95854 14.6844 9.04028 14.7564 9.04028 14.8445ZM10.1846 14.9806C10.0416 15.0366 9.65334 14.9245 9.65334 14.8285C9.65334 14.7805 9.77595 14.7805 9.95986 14.8445C10.1438 14.9005 10.2255 14.9646 10.1846 14.9806ZM10.2664 15.5329C10.2664 15.597 9.87812 15.637 9.77594 15.5809C9.71464 15.5409 9.79638 15.5089 9.95986 15.5089C10.1233 15.5089 10.2664 15.5249 10.2664 15.5329Z" fill="#9EFF00"/>
</svg>
